<svg width="3710" height="3710" viewBox="0 0 3710 3710" fill="none" xmlns="http://www.w3.org/2000/svg">
<g clip-path="url(#clip0_111_3)">
<path d="M3710 0H0V3710H3710V0Z" fill="white"/>
<path d="M2905.34 2820.19C2848.87 2879.31 2795.44 2917.43 2753.22 2947.55C2257 3301.61 1669.84 3198.41 1545.05 3173.2C1360.78 3135.98 1004.58 3064.04 747.055 2762.89C357.443 2307.27 418.111 1589.45 720.321 1115.61C775.6 1028.93 1067.6 547.872 1661.08 470.726C2020.26 424.038 2438.93 518.203 2742.13 770.804C3378.57 1301.04 3333.26 2372.2 2905.34 2820.19Z" fill="url(#paint0_linear_111_3)"/>
<path d="M1514.05 1277.79L1782.74 909.588L1845.76 936.125L1776.1 1241.3L1514.05 1277.79Z" fill="white"/>
<mask id="mask0_111_3" style="mask-type:luminance" maskUnits="userSpaceOnUse" x="473" y="859" width="2764" height="2358">
<path d="M3236.01 1835.73C3236.01 2598.44 2952.1 3218.15 1855 3216.74C841.073 3215.43 473.992 2598.44 473.992 1835.73C473.992 1073.02 1064.79 859.465 1827.5 859.465C2590.21 859.465 3236.01 1073.02 3236.01 1835.73Z" fill="white"/>
</mask>
<g mask="url(#mask0_111_3)">
<path d="M1923.33 1206.79C1155.89 1173.1 508.461 1722.15 477.249 2433.13C457.444 2884.27 690.509 3292.2 1059.57 3538.73H2688.96C3018.22 3316.84 3238.5 2962.59 3256.39 2555.14C3287.6 1844.15 2690.77 1240.48 1923.33 1206.79Z" fill="#90EE90"/>
<path d="M880.903 2544.05C908.696 2495.56 968.623 2748.12 1062.23 2803.56C1112.46 2833.3 1171.38 2853.1 1207.5 2898.94C1260.19 2965.82 1245.59 3060.97 1237.68 3145.74C1229.77 3230.5 1241.62 3333.8 1317.96 3371.48C1362.91 3393.67 1420.04 3386.16 1460.6 3415.61C1499.11 3443.57 1506.85 3489.38 1510.3 3538.73H1735.18C1736.96 3529.67 1739.8 3521.51 1744.02 3514.6C1767.21 3476.59 1802.6 3446.35 1820.89 3405.76C1846.25 3349.46 1839.11 3274.25 1888.31 3236.95C1925.19 3208.99 1976.51 3216.55 2022.79 3216.15C2069.07 3215.74 2125.36 3195.65 2130.61 3149.67C2135.27 3108.87 2094.43 3076.34 2054.46 3066.88C2014.5 3057.43 1971.92 3061.94 1932.67 3049.85C1820.41 3015.29 1768.06 2858.2 1650.83 2850.85C1550.62 2844.57 1466.69 2957.04 1368.23 2937.4C1313.34 2926.45 1275.77 2877.83 1235.02 2839.46C1182.68 2790.16 1117.72 2753.15 1076.17 2694.48C1034.61 2635.8 1027.54 2542 1086.66 2501.07C1130.57 2470.67 1192.97 2483.01 1236.35 2514.17C1279.74 2545.33 1309.29 2591.55 1341.15 2634.42C1350.99 2647.66 1362.13 2661.38 1377.87 2666.31C1420.23 2679.57 1451.15 2619.97 1441.01 2576.75C1430.87 2533.53 1400.34 2495.52 1398.91 2451.15C1396.38 2372.96 1480.59 2323.34 1554.46 2297.57C1628.33 2271.81 1715.4 2241.09 1737.12 2165.93C1744.79 2139.38 1742.78 2110.16 1754.48 2085.13C1793.29 2002.17 1998.03 1960.75 1949.09 1912.65C1900.15 1864.55 1744.81 1854.09 1714.56 1757.21C1703.74 1722.53 1692.59 1676.68 1656.41 1673.32C1597.47 1667.86 1563.85 1740.81 1514.42 1753.33C1490.95 1759.27 1488.69 1799.13 1489.61 1848.14C1490.27 1883.72 1461.98 1913.1 1426.4 1913.77C1390.83 1914.44 1361.43 1886.15 1360.76 1850.58C1360.5 1837.37 1362.82 1824.03 1368.25 1810.72C1377.77 1787.39 1395.84 1768.74 1414.06 1751.34C1490.09 1678.74 1716.95 1598.98 1669.44 1568.08C1621.94 1537.18 1393.94 1451.9 1359.93 1498.96C1325.92 1546.03 1382.17 1506.18 1395.89 1561.99C1409.6 1617.8 1227.22 1610.32 1142.89 1634.49C1128.96 1638.48 1113.52 1642.36 1100.48 1636.05C1085.91 1628.99 1079.78 1612.03 1071.87 1597.9C1029.51 1522.24 888.644 1571.35 888.644 1571.35C888.644 1571.35 844.828 1596.63 817.549 1640.42C787.019 1689.43 763.478 1744.61 767.899 1802.19C773.018 1868.85 806.759 1931.28 808.489 1998.12C811.422 2111.47 723.917 2206.36 696.621 2316.42C666.111 2439.44 781.147 2579.6 826.978 2648.26C872.807 2716.92 853.11 2592.55 880.903 2544.05Z" fill="url(#paint1_linear_111_3)"/>
<path d="M1454.71 1297.04C1434.24 1335.21 1495.13 1334.6 1501.19 1377.49C1556.01 1383.46 1578.52 1297.03 1632.73 1286.95C1663.32 1281.25 1692.99 1303.18 1709.61 1329.48C1726.24 1355.79 1733.99 1386.67 1748.08 1414.42C1779.66 1476.59 1844.85 1520.34 1914.34 1526C1929.46 1527.24 1946.12 1526.27 1957.51 1516.24C1990.55 1487.13 1943.28 1432.43 1955.56 1390.14C1969.59 1341.82 2039.27 1349.15 2086.37 1331.43C2099.36 1326.54 2199.27 1299.88 2200.88 1286.09C2203.72 1261.65 2157.37 1246.09 2105.52 1232.76C2017.67 1210.17 1863.1 1211.11 1787.54 1217.94C1687.02 1227.04 1519.55 1219.69 1454.71 1297.04Z" fill="url(#paint2_linear_111_3)"/>
<path d="M3131.05 2938.67C3153.83 2796.09 3151.93 2649.59 3125.47 2507.64C3118.41 2469.78 3101.89 2424.63 3063.76 2419.18C3019.65 2412.88 2965.66 2463.55 2938.05 2428.58C2925.86 2413.14 2930.72 2390.67 2937.63 2372.25C2955.83 2323.68 2984.34 2279.01 3020.71 2242.03C3043.3 2219.05 3069.16 2198.69 3086.55 2171.57C3123.77 2113.56 3097.64 2028.79 3044.98 1984.34C2992.31 1939.9 2924.37 2019.61 2869 1987.96C2813.64 1956.32 2811.92 1879.56 2801.51 1816.65C2793.81 1770.05 2759.47 1643.8 2721.54 1705.28C2683.61 1766.77 2772.14 2011.54 2871.76 2128.86C2883.78 2143.02 2897.05 2158.87 2896.04 2177.41C2893.61 2221.67 2829.1 2219.71 2785.7 2228.77C2731.98 2239.99 2649.65 2211.22 2695.09 2304.83C2719.05 2354.2 2833.52 2421.77 2802.76 2454.81C2772 2487.85 2677.44 2583.55 2633.07 2660.94C2588.7 2738.34 2567.2 2834.71 2600.66 2917.41C2634.12 3000.11 2734.73 3057.22 2816.86 3022.38C2855.29 3006.07 2897.19 2972.17 2932.92 2993.78C2965.28 3013.34 2960.5 3060.3 2958.9 3098.08C2957.3 3135.85 2979.08 3186 3015.83 3177.13C3027.93 3174.21 3037.44 3165.04 3045.61 3155.65C3097.32 3096.22 3118.62 3016.46 3131.05 2938.67Z" fill="url(#paint3_linear_111_3)"/>
<path opacity="0.26" d="M1791.54 3432.22C2394.32 3432.22 2882.97 2970.6 2882.97 2401.17C2882.97 1831.73 2394.32 1370.11 1791.54 1370.11C1188.76 1370.11 700.107 1831.73 700.107 2401.17C700.107 2970.6 1188.76 3432.22 1791.54 3432.22Z" fill="white"/>
<g opacity="0.68">
<path d="M1561.34 2862.15C1570.62 2975.41 1584.42 3088.36 1604.7 3200.24C1614.86 3256.16 1626.67 3311.81 1640.75 3366.91C1654.86 3421.99 1671.17 3476.59 1691.21 3529.9C1692.32 3532.85 1693.44 3535.79 1694.57 3538.73H1703.66C1702.15 3534.8 1700.67 3530.86 1699.21 3526.92C1679.62 3473.87 1663.71 3419.48 1649.98 3364.58C1636.28 3309.65 1624.84 3254.16 1615.03 3198.39C1595.46 3086.82 1582.35 2974.14 1573.75 2861.18C1565.22 2748.2 1561.33 2634.87 1561.52 2521.57C1561.34 2408.26 1564.08 2294.91 1571.43 2181.82C1578.73 2068.74 1590.17 1955.88 1607.71 1843.93C1616.51 1787.97 1626.86 1732.25 1639.41 1677.03C1652 1621.82 1666.71 1567.06 1685.07 1513.53C1694.3 1486.79 1704.41 1460.34 1715.96 1434.55C1727.49 1408.76 1740.41 1383.55 1755.6 1359.78C1770.81 1336.11 1788.32 1313.59 1809.94 1295.68C1820.75 1286.79 1832.62 1279.1 1845.55 1273.87C1858.44 1268.58 1872.36 1265.8 1886.29 1266.26C1900.23 1266.63 1913.94 1270.34 1926.65 1276.05C1939.38 1281.82 1951.14 1289.66 1961.96 1298.57C1983.62 1316.5 2001.65 1338.54 2017.63 1361.72C2033.57 1385.01 2047.47 1409.69 2060.01 1435.01C2072.58 1460.33 2083.76 1486.34 2094.07 1512.68C2114.6 1565.42 2131.48 1619.55 2146.1 1674.24C2160.68 1728.96 2172.95 1784.3 2183.49 1839.94C2204.57 1951.26 2218.78 2063.82 2228.17 2176.72C2237.65 2289.62 2242.01 2402.95 2241.87 2516.25C2241.89 2629.57 2237.88 2742.9 2229.21 2855.88C2220.62 2968.84 2207.66 3081.53 2188.25 3193.13C2178.54 3248.92 2167.23 3304.44 2153.68 3359.4C2140.09 3414.34 2124.35 3468.78 2105.03 3521.91C2102.97 3527.54 2100.87 3533.14 2098.73 3538.73H2107.92C2109.7 3534.13 2111.45 3529.53 2113.17 3524.91C2132.95 3471.5 2149.1 3416.87 2163.08 3361.75C2177.02 3306.61 2188.71 3250.94 2198.79 3195C2238.58 2971.05 2254.09 2743.42 2254.42 2516.25C2253.85 2289.06 2236.15 2061.4 2192.51 1838.2C2181.48 1782.45 2168.72 1727.02 2153.64 1672.2C2138.51 1617.41 2121.12 1563.18 2100.04 1510.32C2089.46 1483.92 2078 1457.84 2065.13 1432.44C2052.3 1407.04 2038.08 1382.27 2021.77 1358.85C2005.42 1335.54 1986.98 1313.35 1964.71 1295.21C1953.58 1286.2 1941.46 1278.25 1928.28 1272.4C1915.12 1266.59 1900.87 1262.95 1886.4 1262.54C1871.95 1262 1857.43 1264.74 1844.04 1270.12C1830.6 1275.43 1818.32 1283.27 1807.17 1292.28C1784.86 1310.46 1766.93 1333.2 1751.33 1357.02C1735.77 1380.95 1722.52 1406.28 1710.69 1432.17C1698.85 1458.06 1688.46 1484.59 1678.96 1511.4C1660.07 1565.07 1644.84 1619.94 1631.76 1675.25C1618.7 1730.58 1607.87 1786.4 1598.58 1842.46C1580.07 1954.6 1567.68 2067.68 1559.43 2181C1555.33 2237.66 1552.28 2294.4 1550.23 2351.18C1548.26 2407.96 1546.88 2464.77 1547.11 2521.59C1547.57 2635.24 1552.14 2748.88 1561.34 2862.15Z" fill="white"/>
<path d="M959.34 2949.83C999.033 3090.55 1058.88 3226.01 1140.35 3347.59C1181.1 3408.31 1227.28 3465.45 1278.89 3517.27C1286.12 3524.54 1293.47 3531.68 1300.92 3538.73H1314.92C1305.08 3529.44 1295.42 3519.96 1285.95 3510.3C1235.26 3458.54 1189.99 3401.56 1150.14 3341.08C1070.37 3220.03 1012.35 3085.34 973.961 2945.77C935.709 2806.03 917.146 2661.1 917.101 2516.25C917.08 2371.41 935.573 2226.46 973.749 2086.68C1012.06 1947.06 1070.02 1812.31 1149.75 1691.16C1189.59 1630.64 1234.84 1573.61 1285.54 1521.8C1336.24 1470.04 1392.31 1423.35 1453.51 1384.42C1514.72 1345.62 1580.83 1314.31 1650.2 1293.1C1719.6 1272.08 1792.04 1261.09 1864.58 1260.93C1937.13 1261.05 2009.58 1271.99 2079 1292.97C2148.4 1314.14 2214.55 1345.4 2275.82 1384.17C2337.06 1423.06 2393.2 1469.73 2443.96 1521.47C2494.72 1573.27 2540.05 1630.29 2579.95 1690.81C2659.81 1811.97 2717.86 1946.76 2756.31 2086.43C2775.53 2156.32 2789.71 2227.57 2799.18 2299.42C2808.64 2371.28 2813 2443.78 2813.05 2516.25C2812.96 2588.72 2808.57 2661.22 2799.07 2733.07C2789.56 2804.91 2775.35 2876.15 2756.1 2946.01C2717.57 3085.64 2659.45 3220.37 2579.56 3341.43C2539.64 3401.91 2494.3 3458.89 2443.55 3510.63C2434.17 3520.17 2424.61 3529.55 2414.87 3538.73H2427.6C2435.15 3531.58 2442.61 3524.32 2449.94 3516.94C2501.49 3465.1 2547.6 3407.95 2588.28 3347.24C2669.63 3225.67 2729.38 3090.25 2768.94 2949.58C2788.54 2879.14 2803.04 2807.33 2812.81 2734.89C2822.57 2662.44 2827.18 2589.34 2827.44 2516.25C2827.14 2443.16 2822.49 2370.07 2812.7 2297.62C2802.89 2225.2 2788.35 2153.4 2768.72 2082.98C2729.1 1942.35 2669.27 1807 2587.88 1685.53C2547.19 1624.85 2501.08 1567.75 2449.53 1515.96C2398.01 1464.19 2341.02 1417.76 2279.16 1378.88C2217.3 1340.05 2150.49 1308.99 2080.57 1287.79C2010.63 1266.74 1937.63 1255.8 1864.58 1255.76C1791.53 1255.75 1718.52 1266.65 1648.56 1287.66C1578.61 1308.81 1511.75 1339.83 1449.85 1378.62C1387.94 1417.47 1330.88 1463.88 1279.3 1515.64C1227.69 1567.41 1181.51 1624.5 1140.75 1685.18C1059.24 1806.66 999.318 1942.05 959.552 2082.74C939.853 2153.18 925.15 2225 915.353 2297.48C905.603 2369.97 900.995 2443.12 900.737 2516.25C900.961 2589.38 905.533 2662.53 915.251 2735.04C925.014 2807.53 939.675 2879.37 959.34 2949.83Z" fill="white"/>
<path d="M738.148 2017.06L1028.04 2015.32L1317.94 2014.32L1897.72 2013.52L2477.51 2014.4L2767.41 2015.49L3057.3 2017.37C3057.65 2017.37 3057.93 2017.66 3057.93 2018.01C3057.93 2018.36 3057.65 2018.64 3057.3 2018.64L2767.41 2020.53L2477.51 2021.61L1897.72 2022.49L1317.94 2021.69L1028.04 2020.69L738.148 2018.95C737.625 2018.95 737.204 2018.52 737.207 2018C737.21 2017.48 737.631 2017.06 738.148 2017.06Z" fill="white"/>
<path d="M1074.46 1531.51L1280.27 1529.76L1486.09 1528.77C1554.7 1528.35 1623.3 1528.4 1691.91 1528.27L1897.72 1527.98L2309.36 1528.86L2515.17 1529.94L2720.99 1531.82C2721.34 1531.83 2721.62 1532.11 2721.62 1532.47C2721.62 1532.81 2721.33 1533.09 2720.99 1533.09L2515.17 1534.98L2309.36 1536.06L1897.72 1536.94L1691.91 1536.65C1623.3 1536.52 1554.7 1536.57 1486.09 1536.14L1280.27 1535.15L1074.46 1533.4C1073.94 1533.4 1073.52 1532.97 1073.52 1532.45C1073.52 1531.93 1073.94 1531.52 1074.46 1531.51Z" fill="white"/>
<path d="M637.406 2502.61L952.486 2500.87L1267.56 2499.87L1897.72 2499.07L2527.88 2499.95L2842.96 2501.03L3158.04 2502.92C3158.39 2502.92 3158.67 2503.21 3158.67 2503.56C3158.67 2503.9 3158.39 2504.19 3158.04 2504.19L2842.96 2506.07L2527.88 2507.16L1897.72 2508.04L1267.56 2507.24L952.486 2506.24L637.406 2504.5C636.884 2504.5 636.463 2504.07 636.465 2503.55C636.468 2503.03 636.889 2502.61 637.406 2502.61Z" fill="white"/>
<path d="M738.148 2988.16L1028.04 2986.41L1317.94 2985.42L1897.72 2984.62L2477.51 2985.5L2767.41 2986.58L3057.3 2988.47C3057.65 2988.47 3057.93 2988.75 3057.93 2989.1C3057.93 2989.45 3057.65 2989.73 3057.3 2989.74L2767.41 2991.62L2477.51 2992.71L1897.72 2993.58L1317.94 2992.79L1028.04 2991.79L738.148 2990.05C737.625 2990.04 737.204 2989.62 737.207 2989.09C737.21 2988.58 737.631 2988.16 738.148 2988.16Z" fill="white"/>
</g>
</g>
<path d="M2589.91 593.802L2602.74 578.522C2603.95 577.084 2606.09 576.897 2607.53 578.105L2779.41 722.439C2780.85 723.647 2781.04 725.792 2779.83 727.23L2767 742.509C2765.79 743.947 2763.65 744.134 2762.21 742.926L2590.32 598.592C2588.88 597.385 2588.7 595.24 2589.91 593.802Z" fill="url(#paint4_linear_111_3)"/>
<path d="M2523.67 672.686L2537.23 656.532C2538.51 655.011 2540.77 654.814 2542.29 656.091L2713.88 800.174C2715.4 801.451 2715.6 803.719 2714.32 805.239L2700.76 821.393C2699.48 822.914 2697.21 823.111 2695.69 821.834L2524.11 677.751C2522.59 676.474 2522.39 674.206 2523.67 672.686Z" fill="url(#paint5_linear_111_3)"/>
<path d="M2457.87 618.908L2533.43 528.929L2672.43 645.655L2596.88 735.634L2457.87 618.908Z" fill="url(#paint6_linear_111_3)"/>
<path d="M2563.87 620.385L2608.87 566.795L2721.75 661.59L2676.75 715.179L2563.87 620.385Z" fill="url(#paint7_linear_111_3)"/>
<path d="M2514.83 678.781L2559.83 625.192L2672.72 719.986L2627.72 773.575L2514.83 678.781Z" fill="url(#paint8_linear_111_3)"/>
<path d="M2447.08 521.826L2492.08 468.236L2604.97 563.031L2559.97 616.62L2447.08 521.826Z" fill="url(#paint9_linear_111_3)"/>
<path d="M2398.04 580.222L2443.04 526.632L2555.93 621.427L2510.93 675.016L2398.04 580.222Z" fill="url(#paint10_linear_111_3)"/>
<path d="M3044.66 969.774L3057.53 954.528C3058.74 953.093 3058.56 950.947 3057.12 949.736L2885.61 804.954C2884.18 803.743 2882.03 803.924 2880.82 805.359L2867.95 820.605C2866.74 822.04 2866.92 824.185 2868.36 825.397L3039.86 970.179C3041.3 971.39 3043.45 971.209 3044.66 969.774Z" fill="url(#paint11_linear_111_3)"/>
<path d="M2978.21 1048.48L2991.82 1032.37C2993.1 1030.85 2992.91 1028.58 2991.39 1027.3L2820.18 882.77C2818.66 881.489 2816.39 881.681 2815.11 883.198L2801.51 899.316C2800.23 900.833 2800.42 903.101 2801.94 904.382L2973.15 1048.91C2974.66 1050.19 2976.93 1050 2978.21 1048.48Z" fill="url(#paint12_linear_111_3)"/>
<path d="M3042.41 1104.16L3118.2 1014.38L2979.5 897.289L2903.71 987.071L3042.41 1104.16Z" fill="url(#paint13_linear_111_3)"/>
<path d="M3022.9 999.962L3068.04 946.49L2955.4 851.402L2910.26 904.874L3022.9 999.962Z" fill="url(#paint14_linear_111_3)"/>
<path d="M2973.71 1058.23L3018.85 1004.76L2906.21 909.67L2861.07 963.142L2973.71 1058.23Z" fill="url(#paint15_linear_111_3)"/>
<path d="M3139.91 1098.25L3185.05 1044.78L3072.41 949.69L3027.27 1003.16L3139.91 1098.25Z" fill="url(#paint16_linear_111_3)"/>
<path d="M3090.73 1156.52L3135.86 1103.05L3023.22 1007.96L2978.08 1061.43L3090.73 1156.52Z" fill="url(#paint17_linear_111_3)"/>
<path d="M2936.78 649.841L3023.72 538.363L2932.87 646.554L2936.78 649.841Z" fill="url(#paint18_linear_111_3)"/>
<path d="M2909.43 676.696C2892.75 662.691 2886.94 642.165 2896.44 630.85C2905.94 619.535 2927.16 621.717 2943.84 635.722C2960.52 649.727 2966.34 670.253 2956.84 681.568C2947.33 692.883 2926.11 690.702 2909.43 676.696Z" fill="url(#paint19_linear_111_3)"/>
<path d="M2892.23 697.187C2866.69 675.741 2838.89 666.803 2866.87 633.476C2878.41 619.736 2908.47 625.982 2934.01 647.429C2959.55 668.876 2969.9 696.62 2959.36 711.14C2938.42 739.988 2917.77 718.633 2892.23 697.187Z" fill="url(#paint20_linear_111_3)"/>
<path d="M2885.54 706.547C2860 685.101 2848.65 656.576 2860.19 642.836C2871.73 629.096 2901.79 635.343 2927.33 656.789C2952.87 678.235 2963.64 706.277 2952.1 720.017C2940.57 733.758 2911.08 727.994 2885.54 706.547Z" fill="url(#paint21_linear_111_3)"/>
<path d="M2772.27 761.786L2859.73 657.627C2866.7 649.33 2877.99 646.013 2888.31 649.302C2910.61 656.407 2927.98 670.656 2939.81 692.929C2944.91 702.525 2943.59 714.276 2936.6 722.598L2849.35 826.509C2839.83 837.84 2822.93 839.313 2811.6 829.798L2775.56 799.533C2764.23 790.017 2762.75 773.118 2772.27 761.786Z" fill="url(#paint22_linear_111_3)"/>
<path d="M2647.52 862.943L2775.92 710.037C2793.99 688.515 2826 684.245 2851.15 699.978C2871.69 712.823 2892.66 730.914 2907.39 748.803C2923.05 767.831 2923.46 794.473 2908.44 812.363L2775.63 970.519L2647.52 862.943Z" fill="url(#paint23_linear_111_3)"/>
<path d="M2688.29 944.465C2652.91 914.759 2634.56 878.382 2647.29 863.215C2660.03 848.049 2699.03 859.836 2734.41 889.543C2769.79 919.249 2788.14 955.626 2775.41 970.793C2762.67 985.96 2723.67 974.172 2688.29 944.465Z" fill="url(#paint24_linear_111_3)"/>
<path d="M2685.01 948.367C2655.41 923.507 2630.56 901.529 2652.17 878.638C2664.4 865.676 2696.92 874.074 2726.52 898.934C2756.13 923.794 2770.84 955.012 2759.37 968.663C2735.07 997.607 2714.62 973.226 2685.01 948.367Z" fill="url(#paint25_linear_111_3)"/>
<path d="M2680.06 951.419C2651.05 927.055 2634.01 901.751 2644.91 888.772C2655.81 875.793 2688.16 885.022 2717.18 909.387C2746.19 933.751 2760.88 964.025 2749.98 977.004C2739.08 989.983 2709.08 975.783 2680.06 951.419Z" fill="url(#paint26_linear_111_3)"/>
<path d="M2642.31 986.633L2697.04 921.457C2697.71 920.661 2698.89 920.557 2699.69 921.226L2708.15 928.33C2708.95 928.999 2709.05 930.186 2708.38 930.983L2653.65 996.158C2652.98 996.954 2651.8 997.058 2651 996.389L2642.54 989.285C2641.75 988.616 2641.64 987.429 2642.31 986.633Z" fill="url(#paint27_linear_111_3)"/>
<path d="M2658.06 1004.85L2712.79 939.678C2713.46 938.882 2714.65 938.778 2715.45 939.447L2723.9 946.551C2724.7 947.22 2724.8 948.407 2724.14 949.204L2669.41 1014.38C2668.74 1015.17 2667.55 1015.28 2666.75 1014.61L2658.29 1007.51C2657.5 1006.84 2657.4 1005.65 2658.06 1004.85Z" fill="url(#paint28_linear_111_3)"/>
<path d="M2619.07 972.105L2673.8 906.93C2674.46 906.134 2675.65 906.03 2676.45 906.699L2684.91 913.803C2685.7 914.472 2685.81 915.659 2685.14 916.455L2630.41 981.631C2629.74 982.427 2628.55 982.531 2627.76 981.862L2619.3 974.758C2618.5 974.089 2618.4 972.902 2619.07 972.105Z" fill="url(#paint29_linear_111_3)"/>
<path d="M2526.36 1041.9L2610.11 942.167C2621.1 929.081 2639.85 925.739 2654.72 934.157C2669.39 942.461 2685.08 955.239 2696.49 968.15C2709.06 982.387 2709.31 1003.69 2697.09 1018.24L2614.84 1116.19C2612.48 1119 2608.27 1119.37 2605.46 1117.01L2527.18 1051.28C2524.37 1048.91 2524 1044.71 2526.36 1041.9Z" fill="url(#paint30_linear_111_3)"/>
<path d="M2550.24 1103.29C2525.81 1082.78 2513.13 1057.66 2521.93 1047.18C2530.72 1036.71 2557.66 1044.85 2582.09 1065.37C2606.52 1085.88 2619.2 1111 2610.4 1121.48C2601.61 1131.95 2574.67 1123.81 2550.24 1103.29Z" fill="url(#paint31_linear_111_3)"/>
<path d="M2550.43 1099.02C2532.11 1083.64 2522.54 1064.87 2529.07 1057.1C2535.59 1049.34 2555.72 1055.51 2574.04 1070.9C2592.37 1086.28 2601.93 1105.05 2595.41 1112.81C2588.89 1120.58 2568.75 1114.4 2550.43 1099.02Z" fill="url(#paint32_linear_111_3)"/>
<path d="M2523.07 1103.58L2552.56 1068.46C2552.85 1068.12 2553.35 1068.08 2553.69 1068.36L2557.28 1071.38C2557.62 1071.66 2557.66 1072.16 2557.38 1072.5L2527.89 1107.62C2527.6 1107.96 2527.1 1108 2526.76 1107.72L2523.17 1104.7C2522.83 1104.42 2522.79 1103.92 2523.07 1103.58Z" fill="url(#paint33_linear_111_3)"/>
<path d="M2532.51 1111.51L2562 1076.39C2562.29 1076.05 2562.79 1076.01 2563.13 1076.29L2566.72 1079.3C2567.06 1079.59 2567.1 1080.09 2566.82 1080.43L2537.33 1115.55C2537.05 1115.89 2536.54 1115.93 2536.2 1115.65L2532.61 1112.63C2532.27 1112.35 2532.23 1111.84 2532.51 1111.51Z" fill="url(#paint34_linear_111_3)"/>
<path d="M2541.19 1118.79L2570.68 1083.67C2570.96 1083.33 2571.46 1083.29 2571.8 1083.57L2575.39 1086.59C2575.73 1086.87 2575.77 1087.37 2575.49 1087.71L2546 1122.83C2545.72 1123.17 2545.21 1123.21 2544.87 1122.93L2541.28 1119.91C2540.95 1119.63 2540.9 1119.13 2541.19 1118.79Z" fill="url(#paint35_linear_111_3)"/>
<path d="M2441.78 1224.21C2382.32 1174.28 2349.2 1116.16 2371.37 1089.75C2393.54 1063.35 2462.61 1078.66 2522.07 1128.6C2581.54 1178.53 2604.21 1239.78 2582.04 1266.19C2559.86 1292.59 2501.25 1274.15 2441.78 1224.21Z" fill="url(#paint36_linear_111_3)"/>
<path d="M2515.25 1131.18C2565.93 1173.74 2590.43 1230.89 2577.74 1269.52C2577.59 1269.99 2578.15 1270.35 2578.51 1270.02C2579.45 1269.18 2580.42 1268.32 2581.19 1267.4C2615.7 1226.32 2596.18 1153.4 2538.12 1104.64C2480.06 1055.89 2405.03 1049.67 2370.52 1090.76C2369.99 1091.39 2369.48 1092.03 2368.98 1092.68C2368.84 1092.86 2369.04 1093.11 2369.25 1093C2405.23 1074.65 2465.06 1089.04 2515.25 1131.18Z" fill="url(#paint37_linear_111_3)"/>
<path d="M2412.35 1245.42C2403.81 1238.25 2400.64 1227.95 2405.28 1222.43C2409.92 1216.91 2420.6 1218.25 2429.15 1225.42C2437.69 1232.6 2440.86 1242.89 2436.22 1248.41C2431.58 1253.93 2420.9 1252.6 2412.35 1245.42Z" fill="url(#paint38_linear_111_3)"/>
<path d="M2411.18 1246.86C2402.85 1239.87 2399.77 1229.84 2404.28 1224.46C2408.8 1219.08 2419.21 1220.38 2427.54 1227.37C2435.86 1234.36 2438.95 1244.39 2434.43 1249.77C2429.91 1255.15 2419.5 1253.85 2411.18 1246.86Z" fill="url(#paint39_linear_111_3)"/>
<path d="M2497.31 1149.4C2486.27 1140.12 2482.17 1126.82 2488.17 1119.68C2494.16 1112.54 2507.98 1114.27 2519.02 1123.54C2530.07 1132.82 2534.16 1146.13 2528.17 1153.27C2522.18 1160.41 2508.36 1158.67 2497.31 1149.4Z" fill="url(#paint40_linear_111_3)"/>
<path d="M613.296 865.975L607.267 851.458C606.737 850.182 607.342 848.719 608.617 848.189L769.413 781.406C770.689 780.876 772.152 781.481 772.682 782.757L778.711 797.274C779.241 798.55 778.636 800.013 777.361 800.543L616.565 867.326C615.289 867.855 613.826 867.25 613.296 865.975Z" fill="url(#paint41_linear_111_3)"/>
<path d="M643.901 939.664L637.527 924.316C636.967 922.967 637.606 921.42 638.955 920.86L799.486 854.187C800.835 853.627 802.382 854.266 802.942 855.615L809.316 870.963C809.876 872.312 809.237 873.859 807.888 874.419L647.357 941.092C646.008 941.652 644.461 941.013 643.901 939.664Z" fill="url(#paint42_linear_111_3)"/>
<path d="M583.401 965.586L548.495 881.54L678.335 827.614L713.242 911.66L583.401 965.586Z" fill="url(#paint43_linear_111_3)"/>
<path d="M622.231 893.239L601.442 843.182L706.887 799.388L727.676 849.444L622.231 893.239Z" fill="url(#paint44_linear_111_3)"/>
<path d="M644.885 947.784L624.096 897.728L729.541 853.934L750.331 903.99L644.885 947.784Z" fill="url(#paint45_linear_111_3)"/>
<path d="M512.807 938.369L492.018 888.313L597.463 844.519L618.252 894.575L512.807 938.369Z" fill="url(#paint46_linear_111_3)"/>
<path d="M535.462 992.915L514.672 942.859L620.117 899.065L640.907 949.121L535.462 992.915Z" fill="url(#paint47_linear_111_3)"/>
<path d="M1034.01 687.458L1028.02 672.925C1027.49 671.648 1026.03 671.04 1024.75 671.566L863.786 737.929C862.509 738.456 861.901 739.918 862.427 741.195L868.419 755.728C868.945 757.005 870.408 757.613 871.685 757.087L1032.65 690.724C1033.93 690.197 1034.54 688.735 1034.01 687.458Z" fill="url(#paint48_linear_111_3)"/>
<path d="M1064.42 761.227L1058.09 745.863C1057.53 744.513 1055.99 743.87 1054.64 744.426L893.934 810.68C892.584 811.237 891.941 812.782 892.497 814.132L898.831 829.496C899.388 830.846 900.933 831.489 902.283 830.933L1062.99 764.679C1064.34 764.122 1064.98 762.577 1064.42 761.227Z" fill="url(#paint49_linear_111_3)"/>
<path d="M1125.55 736.82L1090.86 652.683L960.884 706.27L995.571 790.407L1125.55 736.82Z" fill="url(#paint50_linear_111_3)"/>
<path d="M1046.95 713.064L1026.29 662.953L920.736 706.472L941.395 756.583L1046.95 713.064Z" fill="url(#paint51_linear_111_3)"/>
<path d="M1069.47 767.668L1048.81 717.558L943.248 761.077L963.907 811.187L1069.47 767.668Z" fill="url(#paint52_linear_111_3)"/>
<path d="M1156.27 667.679L1135.61 617.569L1030.05 661.088L1050.71 711.198L1156.27 667.679Z" fill="url(#paint53_linear_111_3)"/>
<path d="M1178.78 722.284L1158.13 672.173L1052.57 715.692L1073.23 765.802L1178.78 722.284Z" fill="url(#paint54_linear_111_3)"/>
<path d="M775.521 647.361L729.893 547.824L771.865 648.88L775.521 647.361Z" fill="url(#paint55_linear_111_3)"/>
<path d="M784.227 675.747C768.648 682.217 752.461 678.895 748.071 668.326C743.682 657.757 752.752 643.945 768.331 637.474C783.91 631.004 800.097 634.326 804.487 644.895C808.877 655.464 799.806 669.277 784.227 675.747Z" fill="url(#paint56_linear_111_3)"/>
<path d="M792.176 694.887C768.32 704.795 752.258 720.718 739.329 689.588C733.998 676.754 749.017 658.317 772.873 648.409C796.729 638.501 819.496 641.282 825.72 653.708C838.083 678.394 816.032 684.979 792.176 694.887Z" fill="url(#paint57_linear_111_3)"/>
<path d="M796.227 702.821C772.371 712.729 748.711 710.357 743.38 697.522C738.049 684.688 753.067 666.251 776.924 656.343C800.78 646.435 823.903 649.03 829.234 661.865C834.564 674.7 820.083 692.913 796.227 702.821Z" fill="url(#paint58_linear_111_3)"/>
<path d="M793.794 800.405L753.386 703.114C750.167 695.364 751.915 686.418 757.859 680.495C770.698 667.7 786.691 660.842 806.226 660.651C814.643 660.569 822.249 665.672 825.477 673.445L865.788 770.504C870.184 781.088 865.167 793.232 854.583 797.628L820.917 811.61C810.333 816.005 798.189 810.989 793.794 800.405Z" fill="url(#paint59_linear_111_3)"/>
<path d="M818.837 922.256L759.519 779.433C751.17 759.33 759.651 735.804 779.443 724.121C795.601 714.583 815.52 706.619 833.073 702.876C851.743 698.896 870.206 708.117 877.147 724.828L938.502 872.556L818.837 922.256Z" fill="url(#paint60_linear_111_3)"/>
<path d="M889.428 923.311C856.384 937.035 824.826 936.677 818.943 922.51C813.059 908.344 835.077 885.734 868.122 872.01C901.166 858.286 932.724 858.644 938.607 872.811C944.49 886.977 922.472 909.587 889.428 923.311Z" fill="url(#paint61_linear_111_3)"/>
<path d="M890.942 926.955C863.289 938.44 839.312 947.686 831.284 924.663C826.738 911.627 844.112 892.266 871.765 880.781C899.418 869.296 926.128 870.322 931.423 883.073C942.651 910.109 918.594 915.471 890.942 926.955Z" fill="url(#paint62_linear_111_3)"/>
<path d="M891.274 931.448C864.172 942.704 840.697 945.392 835.662 933.268C830.627 921.144 848.515 902.191 875.617 890.935C902.719 879.679 928.771 880.382 933.806 892.505C938.842 904.629 918.376 920.191 891.274 931.448Z" fill="url(#paint63_linear_111_3)"/>
<path d="M902.043 970.034L876.702 909.02C876.409 908.314 876.743 907.503 877.45 907.21L885.488 903.872C886.194 903.579 887.005 903.913 887.298 904.62L912.639 965.634C912.932 966.34 912.598 967.151 911.891 967.444L903.853 970.782C903.147 971.075 902.336 970.741 902.043 970.034Z" fill="url(#paint64_linear_111_3)"/>
<path d="M920.19 965.703L894.849 904.689C894.556 903.983 894.891 903.172 895.597 902.879L903.635 899.541C904.341 899.248 905.152 899.582 905.445 900.289L930.786 961.303C931.079 962.009 930.745 962.82 930.038 963.113L922 966.451C921.294 966.744 920.483 966.409 920.19 965.703Z" fill="url(#paint65_linear_111_3)"/>
<path d="M883.763 980.832L858.422 919.818C858.129 919.112 858.463 918.301 859.17 918.008L867.208 914.67C867.914 914.377 868.725 914.712 869.018 915.418L894.359 976.432C894.652 977.138 894.318 977.949 893.611 978.242L885.573 981.58C884.867 981.873 884.057 981.538 883.763 980.832Z" fill="url(#paint66_linear_111_3)"/>
<path d="M898.646 1069.4L859.957 976.242C854.88 964.019 859.272 949.936 870.364 942.715C881.306 935.592 895.691 929.36 908.636 926.125C922.911 922.558 937.644 929.991 943.287 943.58L981.286 1035.07C982.379 1037.7 981.132 1040.72 978.501 1041.81L905.387 1072.18C902.757 1073.27 899.738 1072.03 898.646 1069.4Z" fill="url(#paint67_linear_111_3)"/>
<path d="M949.375 1074.89C926.554 1084.36 904.761 1084.12 900.697 1074.33C896.634 1064.55 911.84 1048.94 934.66 1039.46C957.481 1029.98 979.274 1030.23 983.338 1040.01C987.402 1049.79 972.195 1065.41 949.375 1074.89Z" fill="url(#paint68_linear_111_3)"/>
<path d="M946.505 1073.23C929.392 1080.34 913.078 1080.22 910.065 1072.96C907.052 1065.71 918.483 1054.07 935.595 1046.96C952.708 1039.85 969.022 1039.97 972.035 1047.23C975.048 1054.48 963.618 1066.12 946.505 1073.23Z" fill="url(#paint69_linear_111_3)"/>
<path d="M939.89 1093.69L926.242 1060.83C926.117 1060.53 926.26 1060.19 926.559 1060.06L929.971 1058.65C930.271 1058.52 930.615 1058.67 930.739 1058.96L944.387 1091.83C944.512 1092.13 944.369 1092.47 944.07 1092.59L940.658 1094.01C940.358 1094.14 940.014 1093.99 939.89 1093.69Z" fill="url(#paint70_linear_111_3)"/>
<path d="M948.71 1090.03L935.062 1057.17C934.937 1056.87 935.08 1056.53 935.379 1056.4L938.791 1054.98C939.091 1054.86 939.435 1055 939.559 1055.3L953.207 1088.16C953.332 1088.46 953.189 1088.81 952.89 1088.93L949.478 1090.35C949.178 1090.47 948.834 1090.33 948.71 1090.03Z" fill="url(#paint71_linear_111_3)"/>
<path d="M956.809 1086.67L943.161 1053.81C943.036 1053.51 943.179 1053.16 943.478 1053.04L946.89 1051.62C947.19 1051.5 947.534 1051.64 947.658 1051.94L961.306 1084.8C961.431 1085.1 961.288 1085.44 960.989 1085.57L957.577 1086.98C957.277 1087.11 956.933 1086.97 956.809 1086.67Z" fill="url(#paint72_linear_111_3)"/>
<path d="M993.815 1192.59C938.269 1215.66 886.496 1217.69 876.253 1193.03C866.01 1168.37 901.177 1126.35 956.723 1103.28C1012.27 1080.21 1062.46 1086.48 1072.71 1111.14C1082.95 1135.8 1049.36 1169.52 993.815 1192.59Z" fill="url(#paint73_linear_111_3)"/>
<path d="M997.898 1220.39C989.917 1223.7 981.711 1222.21 979.568 1217.05C977.426 1211.89 982.159 1205.02 990.139 1201.71C998.12 1198.39 1006.33 1199.89 1008.47 1205.04C1010.61 1210.2 1005.88 1217.07 997.898 1220.39Z" fill="url(#paint74_linear_111_3)"/>
<path d="M998.466 1221.71C990.69 1224.94 982.695 1223.48 980.608 1218.46C978.521 1213.43 983.132 1206.74 990.907 1203.51C998.682 1200.28 1006.68 1201.74 1008.76 1206.76C1010.85 1211.79 1006.24 1218.48 998.466 1221.71Z" fill="url(#paint75_linear_111_3)"/>
<path d="M962.191 1127.72C951.873 1132 941.264 1130.07 938.494 1123.4C935.724 1116.73 941.843 1107.85 952.161 1103.57C962.479 1099.28 973.088 1101.22 975.858 1107.89C978.628 1114.55 972.509 1123.43 962.191 1127.72Z" fill="url(#paint76_linear_111_3)"/>
<path d="M956.066 1108.89C1003.41 1089.23 1051.44 1092.77 1073.47 1115.28C1073.73 1115.55 1074.18 1115.29 1074.09 1114.93C1073.84 1113.98 1073.6 1113.01 1073.24 1112.15C1057.31 1073.77 1000.21 1061.18 945.979 1083.7C891.747 1106.22 860.705 1155.59 876.644 1193.97C876.889 1194.56 877.147 1195.14 877.413 1195.72C877.488 1195.88 877.729 1195.83 877.73 1195.65C877.952 1164.36 909.19 1128.36 956.066 1108.89Z" fill="url(#paint77_linear_111_3)"/>
<path d="M1467.39 1780.9C1488.44 1823.92 1422.32 1903.18 1324.21 1951.18C1226.11 1999.18 1129.51 2003.22 1108.46 1960.19C1087.41 1917.16 1149.87 1843.37 1247.97 1795.36C1346.07 1747.36 1446.33 1737.87 1467.39 1780.9Z" fill="white"/>
<path d="M1857.75 904.8L1799.5 874.93L1879.56 718.813L1937.81 748.683L1857.75 904.8Z" fill="url(#paint78_linear_111_3)"/>
<path d="M1998.98 963.728L1877.24 901.302L1907.88 841.556L2029.61 903.981L1998.98 963.728Z" fill="url(#paint79_linear_111_3)"/>
<path d="M1792.14 857.664L1670.4 795.239L1701.04 735.492L1822.78 797.918L1792.14 857.664Z" fill="url(#paint80_linear_111_3)"/>
<path d="M1802.08 941.638L1738.66 909.116C1749.93 887.136 1787.83 883.729 1822.62 901.571C1857.42 919.412 1876.77 952.181 1865.5 974.161L1802.08 941.638Z" fill="url(#paint81_linear_111_3)"/>
<path d="M1913.74 880.081L1795.27 819.329L1800.74 808.659L1919.22 869.411L1913.74 880.081Z" fill="url(#paint82_linear_111_3)"/>
<path d="M1782.55 966.577L1911.92 714.298L1922.59 719.769L1793.22 972.048L1782.55 966.577Z" fill="url(#paint83_linear_111_3)"/>
<path d="M2475.43 1108.7C2461.89 1103.6 2445.78 1129.66 2433.5 1141.5C2270.69 1298.48 1363.07 2223.49 1206.28 2383.36C1201.26 2388.47 1198.88 2394.99 1198.89 2401.46C1187.01 2408.55 1177.69 2417.66 1171.36 2428.85C1126.15 2508.85 1250.7 2664.8 1449.55 2777.18C1648.39 2889.55 1859.71 2916.17 1904.92 2836.17C1907.25 2832.04 1909.07 2827.7 1910.44 2823.18C1915.68 2820.31 1920.01 2815.66 1922.29 2809.54L2544.11 1163.74C2521.14 1137.76 2494.16 1119.37 2475.43 1108.7Z" fill="white"/>
<path d="M1467.39 1780.9C1488.44 1823.92 1422.32 1903.18 1324.21 1951.18C1226.11 1999.18 1129.51 2003.22 1108.46 1960.19C1087.41 1917.16 1149.87 1843.37 1247.97 1795.36C1346.07 1747.36 1446.33 1737.87 1467.39 1780.9Z" fill="white"/>
<path d="M1470.7 1795.82C1465.9 1786.01 1456.95 1778.96 1444.88 1774.45L984.827 1122.45C968.919 1124.28 954.881 1129.61 945.939 1133.87C940.478 1137.63 946.296 1150.53 947.653 1158.26C965.661 1260.75 1085.17 1845.16 1105.84 1946.14C1106.22 1947.99 1107.01 1949.63 1108.07 1951.02C1107.1 1959.74 1108.23 1967.87 1111.78 1975.12C1132.83 2018.15 1229.43 2014.11 1327.53 1966.11C1425.63 1918.1 1491.76 1838.85 1470.7 1795.82Z" fill="white"/>
<path d="M1897.78 2834.28C1852.57 2914.28 1641.26 2887.67 1442.41 2775.29C1243.56 2662.91 1119.02 2506.96 1164.23 2426.96C1209.44 2346.96 1407.29 2373.21 1606.13 2485.59C1804.98 2597.97 1942.99 2754.28 1897.78 2834.28Z" fill="white"/>
</g>
<defs>
<linearGradient id="paint0_linear_111_3" x1="3575.91" y1="4022.62" x2="1125.77" y2="979.695" gradientUnits="userSpaceOnUse">
<stop stop-color="#DAE3FE"/>
<stop offset="1" stop-color="#E9EFFD"/>
</linearGradient>
<linearGradient id="paint1_linear_111_3" x1="1840.48" y1="3466.63" x2="1047.18" y2="1466.71" gradientUnits="userSpaceOnUse">
<stop stop-color="#168D16"/>
<stop offset="1" stop-color="#1CB51C"/>
</linearGradient>
<linearGradient id="paint2_linear_111_3" x1="2567.98" y1="3168.85" x2="1781.68" y2="1186.58" gradientUnits="userSpaceOnUse">
<stop stop-color="#168D16"/>
<stop offset="1" stop-color="#1CB51C"/>
</linearGradient>
<linearGradient id="paint3_linear_111_3" x1="2426.48" y1="3713.29" x2="3413.15" y2="1002.16" gradientUnits="userSpaceOnUse">
<stop stop-color="#168D16"/>
<stop offset="1" stop-color="#1CB51C"/>
</linearGradient>
<linearGradient id="paint4_linear_111_3" x1="2798.78" y1="750.613" x2="2534.54" y2="541.62" gradientUnits="userSpaceOnUse">
<stop stop-color="#A16207"/>
<stop offset="1" stop-color="#C97908"/>
</linearGradient>
<linearGradient id="paint5_linear_111_3" x1="2735.28" y1="830.932" x2="2471.01" y2="621.92" gradientUnits="userSpaceOnUse">
<stop stop-color="#A16207"/>
<stop offset="1" stop-color="#C97908"/>
</linearGradient>
<linearGradient id="paint6_linear_111_3" x1="2766.27" y1="791.353" x2="2502.44" y2="582.685" gradientUnits="userSpaceOnUse">
<stop stop-color="#A16207"/>
<stop offset="1" stop-color="#C97908"/>
</linearGradient>
<linearGradient id="paint7_linear_111_3" x1="2660.43" y1="563.391" x2="2583.96" y2="900.102" gradientUnits="userSpaceOnUse">
<stop stop-color="#F8BA62"/>
<stop offset="1" stop-color="#C97908"/>
</linearGradient>
<linearGradient id="paint8_linear_111_3" x1="2626.41" y1="555.667" x2="2549.94" y2="892.379" gradientUnits="userSpaceOnUse">
<stop stop-color="#F8BA62"/>
<stop offset="1" stop-color="#C97908"/>
</linearGradient>
<linearGradient id="paint9_linear_111_3" x1="2648.98" y1="546.813" x2="2162.77" y2="529.474" gradientUnits="userSpaceOnUse">
<stop stop-color="#F8BA62"/>
<stop offset="1" stop-color="#C97908"/>
</linearGradient>
<linearGradient id="paint10_linear_111_3" x1="2646.84" y1="606.881" x2="2160.63" y2="589.542" gradientUnits="userSpaceOnUse">
<stop stop-color="#F8BA62"/>
<stop offset="1" stop-color="#C97908"/>
</linearGradient>
<linearGradient id="paint11_linear_111_3" x1="2941.12" y1="803.873" x2="3023.47" y2="1122.63" gradientUnits="userSpaceOnUse">
<stop stop-color="#A16207"/>
<stop offset="1" stop-color="#C97908"/>
</linearGradient>
<linearGradient id="paint12_linear_111_3" x1="2859.79" y1="823.135" x2="2942.26" y2="1142.32" gradientUnits="userSpaceOnUse">
<stop stop-color="#A16207"/>
<stop offset="1" stop-color="#C97908"/>
</linearGradient>
<linearGradient id="paint13_linear_111_3" x1="2959.44" y1="801.341" x2="3039.77" y2="1112.23" gradientUnits="userSpaceOnUse">
<stop stop-color="#A16207"/>
<stop offset="1" stop-color="#C97908"/>
</linearGradient>
<linearGradient id="paint14_linear_111_3" x1="2946.27" y1="750.802" x2="3060.72" y2="1217.58" gradientUnits="userSpaceOnUse">
<stop stop-color="#F8BA62"/>
<stop offset="1" stop-color="#C97908"/>
</linearGradient>
<linearGradient id="paint15_linear_111_3" x1="2886.39" y1="765.488" x2="3000.85" y2="1232.27" gradientUnits="userSpaceOnUse">
<stop stop-color="#F8BA62"/>
<stop offset="1" stop-color="#C97908"/>
</linearGradient>
<linearGradient id="paint16_linear_111_3" x1="3033.91" y1="729.309" x2="3148.37" y2="1196.09" gradientUnits="userSpaceOnUse">
<stop stop-color="#F8BA62"/>
<stop offset="1" stop-color="#C97908"/>
</linearGradient>
<linearGradient id="paint17_linear_111_3" x1="2974.04" y1="743.994" x2="3088.49" y2="1210.77" gradientUnits="userSpaceOnUse">
<stop stop-color="#F8BA62"/>
<stop offset="1" stop-color="#C97908"/>
</linearGradient>
<linearGradient id="paint18_linear_111_3" x1="2993.37" y1="586.19" x2="2657.45" y2="788.762" gradientUnits="userSpaceOnUse">
<stop stop-color="#F8BA62"/>
<stop offset="1" stop-color="#C97908"/>
</linearGradient>
<linearGradient id="paint19_linear_111_3" x1="2943.84" y1="635.723" x2="2909.43" y2="676.695" gradientUnits="userSpaceOnUse">
<stop stop-color="#A16207"/>
<stop offset="1" stop-color="#C97908"/>
</linearGradient>
<linearGradient id="paint20_linear_111_3" x1="2909.73" y1="813.268" x2="2908.99" y2="570.91" gradientUnits="userSpaceOnUse">
<stop stop-color="#F8BA62"/>
<stop offset="1" stop-color="#C97908"/>
</linearGradient>
<linearGradient id="paint21_linear_111_3" x1="3041.98" y1="505.507" x2="3143.15" y2="374.482" gradientUnits="userSpaceOnUse">
<stop stop-color="#F8BA62"/>
<stop offset="1" stop-color="#C97908"/>
</linearGradient>
<linearGradient id="paint22_linear_111_3" x1="2918.52" y1="665.877" x2="2793.58" y2="814.663" gradientUnits="userSpaceOnUse">
<stop stop-color="#A16207"/>
<stop offset="1" stop-color="#C97908"/>
</linearGradient>
<linearGradient id="paint23_linear_111_3" x1="2892.74" y1="806.214" x2="2575.33" y2="884.044" gradientUnits="userSpaceOnUse">
<stop stop-color="#F8BA62"/>
<stop offset="1" stop-color="#C97908"/>
</linearGradient>
<linearGradient id="paint24_linear_111_3" x1="2734.41" y1="889.544" x2="2688.29" y2="944.464" gradientUnits="userSpaceOnUse">
<stop stop-color="#A16207"/>
<stop offset="1" stop-color="#C97908"/>
</linearGradient>
<linearGradient id="paint25_linear_111_3" x1="2724.64" y1="960.853" x2="2818.24" y2="1121.8" gradientUnits="userSpaceOnUse">
<stop stop-color="#F8BA62"/>
<stop offset="1" stop-color="#C97908"/>
</linearGradient>
<linearGradient id="paint26_linear_111_3" x1="2675.99" y1="879.285" x2="2737.17" y2="1026.32" gradientUnits="userSpaceOnUse">
<stop stop-color="#A16207"/>
<stop offset="1" stop-color="#C97908"/>
</linearGradient>
<linearGradient id="paint27_linear_111_3" x1="2754.36" y1="1110.6" x2="2646.27" y2="902.94" gradientUnits="userSpaceOnUse">
<stop stop-color="#F8BA62"/>
<stop offset="1" stop-color="#C97908"/>
</linearGradient>
<linearGradient id="paint28_linear_111_3" x1="2758.59" y1="1106.69" x2="2650.5" y2="899.029" gradientUnits="userSpaceOnUse">
<stop stop-color="#F8BA62"/>
<stop offset="1" stop-color="#C97908"/>
</linearGradient>
<linearGradient id="paint29_linear_111_3" x1="2742.72" y1="1118.38" x2="2634.63" y2="910.716" gradientUnits="userSpaceOnUse">
<stop stop-color="#F8BA62"/>
<stop offset="1" stop-color="#C97908"/>
</linearGradient>
<linearGradient id="paint30_linear_111_3" x1="2702.39" y1="1003.78" x2="2517.89" y2="1050.14" gradientUnits="userSpaceOnUse">
<stop stop-color="#F8BA62"/>
<stop offset="1" stop-color="#C97908"/>
</linearGradient>
<linearGradient id="paint31_linear_111_3" x1="2556.6" y1="1121.9" x2="2601.7" y2="944.716" gradientUnits="userSpaceOnUse">
<stop stop-color="#A16207"/>
<stop offset="1" stop-color="#C97908"/>
</linearGradient>
<linearGradient id="paint32_linear_111_3" x1="2584.1" y1="1056.6" x2="2652.05" y2="968.455" gradientUnits="userSpaceOnUse">
<stop stop-color="#F8BA62"/>
<stop offset="1" stop-color="#C97908"/>
</linearGradient>
<linearGradient id="paint33_linear_111_3" x1="2602.02" y1="1266.17" x2="2547.45" y2="1108.87" gradientUnits="userSpaceOnUse">
<stop stop-color="#F8BA62"/>
<stop offset="1" stop-color="#C97908"/>
</linearGradient>
<linearGradient id="paint34_linear_111_3" x1="2607.78" y1="1263.46" x2="2553.2" y2="1106.16" gradientUnits="userSpaceOnUse">
<stop stop-color="#F8BA62"/>
<stop offset="1" stop-color="#C97908"/>
</linearGradient>
<linearGradient id="paint35_linear_111_3" x1="2613.06" y1="1260.97" x2="2558.48" y2="1103.67" gradientUnits="userSpaceOnUse">
<stop stop-color="#F8BA62"/>
<stop offset="1" stop-color="#C97908"/>
</linearGradient>
<linearGradient id="paint36_linear_111_3" x1="2450.07" y1="1246.03" x2="2523.17" y2="1060.08" gradientUnits="userSpaceOnUse">
<stop stop-color="#A16207"/>
<stop offset="1" stop-color="#C97908"/>
</linearGradient>
<linearGradient id="paint37_linear_111_3" x1="2482.46" y1="1123.32" x2="2488.38" y2="1284.66" gradientUnits="userSpaceOnUse">
<stop stop-color="#F8BA62"/>
<stop offset="1" stop-color="#C97908"/>
</linearGradient>
<linearGradient id="paint38_linear_111_3" x1="2429.15" y1="1225.42" x2="2412.35" y2="1245.42" gradientUnits="userSpaceOnUse">
<stop stop-color="#F8BA62"/>
<stop offset="1" stop-color="#C97908"/>
</linearGradient>
<linearGradient id="paint39_linear_111_3" x1="2598.26" y1="1061.62" x2="2535.06" y2="1123.62" gradientUnits="userSpaceOnUse">
<stop stop-color="#F8BA62"/>
<stop offset="1" stop-color="#C97908"/>
</linearGradient>
<linearGradient id="paint40_linear_111_3" x1="2519.03" y1="1123.54" x2="2497.31" y2="1149.4" gradientUnits="userSpaceOnUse">
<stop stop-color="#F8BA62"/>
<stop offset="1" stop-color="#C97908"/>
</linearGradient>
<linearGradient id="paint41_linear_111_3" x1="795.577" y1="778.193" x2="557.609" y2="885.297" gradientUnits="userSpaceOnUse">
<stop stop-color="#A16207"/>
<stop offset="1" stop-color="#C97908"/>
</linearGradient>
<linearGradient id="paint42_linear_111_3" x1="828.141" y1="850.508" x2="590.152" y2="957.622" gradientUnits="userSpaceOnUse">
<stop stop-color="#A16207"/>
<stop offset="1" stop-color="#C97908"/>
</linearGradient>
<linearGradient id="paint43_linear_111_3" x1="811.981" y1="815.085" x2="574.4" y2="922.015" gradientUnits="userSpaceOnUse">
<stop stop-color="#A16207"/>
<stop offset="1" stop-color="#C97908"/>
</linearGradient>
<linearGradient id="paint44_linear_111_3" x1="-16458.8" y1="7958.94" x2="-16674.8" y2="8048.65" gradientUnits="userSpaceOnUse">
<stop stop-color="#F8BA62"/>
<stop offset="1" stop-color="#C97908"/>
</linearGradient>
<linearGradient id="paint45_linear_111_3" x1="-16436.1" y1="8013.48" x2="-16652.1" y2="8103.19" gradientUnits="userSpaceOnUse">
<stop stop-color="#F8BA62"/>
<stop offset="1" stop-color="#C97908"/>
</linearGradient>
<linearGradient id="paint46_linear_111_3" x1="-16458.9" y1="7958.67" x2="-16674.9" y2="8048.38" gradientUnits="userSpaceOnUse">
<stop stop-color="#F8BA62"/>
<stop offset="1" stop-color="#C97908"/>
</linearGradient>
<linearGradient id="paint47_linear_111_3" x1="-16436.2" y1="8013.21" x2="-16652.2" y2="8102.92" gradientUnits="userSpaceOnUse">
<stop stop-color="#F8BA62"/>
<stop offset="1" stop-color="#C97908"/>
</linearGradient>
<linearGradient id="paint48_linear_111_3" x1="882.916" y1="699.331" x2="1131.63" y2="756.442" gradientUnits="userSpaceOnUse">
<stop stop-color="#A16207"/>
<stop offset="1" stop-color="#C97908"/>
</linearGradient>
<linearGradient id="paint49_linear_111_3" x1="867.107" y1="762.11" x2="1116.17" y2="819.3" gradientUnits="userSpaceOnUse">
<stop stop-color="#A16207"/>
<stop offset="1" stop-color="#C97908"/>
</linearGradient>
<linearGradient id="paint50_linear_111_3" x1="887.758" y1="685.848" x2="1130.16" y2="741.509" gradientUnits="userSpaceOnUse">
<stop stop-color="#A16207"/>
<stop offset="1" stop-color="#C97908"/>
</linearGradient>
<linearGradient id="paint51_linear_111_3" x1="-3084.52" y1="2517.39" x2="-3308.93" y2="2617.09" gradientUnits="userSpaceOnUse">
<stop stop-color="#F8BA62"/>
<stop offset="1" stop-color="#C97908"/>
</linearGradient>
<linearGradient id="paint52_linear_111_3" x1="-3060.55" y1="2571.34" x2="-3284.96" y2="2671.05" gradientUnits="userSpaceOnUse">
<stop stop-color="#F8BA62"/>
<stop offset="1" stop-color="#C97908"/>
</linearGradient>
<linearGradient id="paint53_linear_111_3" x1="-3083.34" y1="2520.05" x2="-3307.75" y2="2619.76" gradientUnits="userSpaceOnUse">
<stop stop-color="#F8BA62"/>
<stop offset="1" stop-color="#C97908"/>
</linearGradient>
<linearGradient id="paint54_linear_111_3" x1="-3059.38" y1="2574.01" x2="-3283.78" y2="2673.71" gradientUnits="userSpaceOnUse">
<stop stop-color="#F8BA62"/>
<stop offset="1" stop-color="#C97908"/>
</linearGradient>
<linearGradient id="paint55_linear_111_3" x1="751.948" y1="585.749" x2="771.401" y2="888.976" gradientUnits="userSpaceOnUse">
<stop stop-color="#F8BA62"/>
<stop offset="1" stop-color="#C97908"/>
</linearGradient>
<linearGradient id="paint56_linear_111_3" x1="768.331" y1="637.476" x2="784.228" y2="675.747" gradientUnits="userSpaceOnUse">
<stop stop-color="#A16207"/>
<stop offset="1" stop-color="#C97908"/>
</linearGradient>
<linearGradient id="paint57_linear_111_3" x1="734.211" y1="278.722" x2="754.113" y2="437.942" gradientUnits="userSpaceOnUse">
<stop stop-color="#F8BA62"/>
<stop offset="1" stop-color="#C97908"/>
</linearGradient>
<linearGradient id="paint58_linear_111_3" x1="870.368" y1="493.681" x2="916.807" y2="390.852" gradientUnits="userSpaceOnUse">
<stop stop-color="#F8BA62"/>
<stop offset="1" stop-color="#C97908"/>
</linearGradient>
<linearGradient id="paint59_linear_111_3" x1="780.025" y1="665.641" x2="837.753" y2="804.618" gradientUnits="userSpaceOnUse">
<stop stop-color="#A16207"/>
<stop offset="1" stop-color="#C97908"/>
</linearGradient>
<linearGradient id="paint60_linear_111_3" x1="867.31" y1="733.429" x2="807.603" y2="979.419" gradientUnits="userSpaceOnUse">
<stop stop-color="#F8BA62"/>
<stop offset="1" stop-color="#C97908"/>
</linearGradient>
<linearGradient id="paint61_linear_111_3" x1="868.12" y1="872.011" x2="889.429" y2="923.311" gradientUnits="userSpaceOnUse">
<stop stop-color="#A16207"/>
<stop offset="1" stop-color="#C97908"/>
</linearGradient>
<linearGradient id="paint62_linear_111_3" x1="913.664" y1="904.162" x2="1057.71" y2="897.223" gradientUnits="userSpaceOnUse">
<stop stop-color="#F8BA62"/>
<stop offset="1" stop-color="#C97908"/>
</linearGradient>
<linearGradient id="paint63_linear_111_3" x1="840.226" y1="908.518" x2="963.149" y2="918.901" gradientUnits="userSpaceOnUse">
<stop stop-color="#A16207"/>
<stop offset="1" stop-color="#C97908"/>
</linearGradient>
<linearGradient id="paint64_linear_111_3" x1="1027.37" y1="937.145" x2="845.832" y2="937.391" gradientUnits="userSpaceOnUse">
<stop stop-color="#F8BA62"/>
<stop offset="1" stop-color="#C97908"/>
</linearGradient>
<linearGradient id="paint65_linear_111_3" x1="1026.17" y1="932.84" x2="844.633" y2="933.086" gradientUnits="userSpaceOnUse">
<stop stop-color="#F8BA62"/>
<stop offset="1" stop-color="#C97908"/>
</linearGradient>
<linearGradient id="paint66_linear_111_3" x1="1028.59" y1="947.917" x2="847.049" y2="948.162" gradientUnits="userSpaceOnUse">
<stop stop-color="#F8BA62"/>
<stop offset="1" stop-color="#C97908"/>
</linearGradient>
<linearGradient id="paint67_linear_111_3" x1="935.231" y1="934.775" x2="901.294" y2="1078.17" gradientUnits="userSpaceOnUse">
<stop stop-color="#F8BA62"/>
<stop offset="1" stop-color="#C97908"/>
</linearGradient>
<linearGradient id="paint68_linear_111_3" x1="964.433" y1="1077.15" x2="858.716" y2="982.934" gradientUnits="userSpaceOnUse">
<stop stop-color="#A16207"/>
<stop offset="1" stop-color="#C97908"/>
</linearGradient>
<linearGradient id="paint69_linear_111_3" x1="929.352" y1="1034.94" x2="892.998" y2="956.783" gradientUnits="userSpaceOnUse">
<stop stop-color="#F8BA62"/>
<stop offset="1" stop-color="#C97908"/>
</linearGradient>
<linearGradient id="paint70_linear_111_3" x1="1079.96" y1="1097.4" x2="952.227" y2="1078.79" gradientUnits="userSpaceOnUse">
<stop stop-color="#F8BA62"/>
<stop offset="1" stop-color="#C97908"/>
</linearGradient>
<linearGradient id="paint71_linear_111_3" x1="1080.14" y1="1092.48" x2="952.409" y2="1073.87" gradientUnits="userSpaceOnUse">
<stop stop-color="#F8BA62"/>
<stop offset="1" stop-color="#C97908"/>
</linearGradient>
<linearGradient id="paint72_linear_111_3" x1="1080.31" y1="1087.96" x2="952.576" y2="1069.35" gradientUnits="userSpaceOnUse">
<stop stop-color="#F8BA62"/>
<stop offset="1" stop-color="#C97908"/>
</linearGradient>
<linearGradient id="paint73_linear_111_3" x1="1011.77" y1="1194.68" x2="910.013" y2="1078.08" gradientUnits="userSpaceOnUse">
<stop stop-color="#A16207"/>
<stop offset="1" stop-color="#C97908"/>
</linearGradient>
<linearGradient id="paint74_linear_111_3" x1="990.139" y1="1201.71" x2="997.898" y2="1220.39" gradientUnits="userSpaceOnUse">
<stop stop-color="#F8BA62"/>
<stop offset="1" stop-color="#C97908"/>
</linearGradient>
<linearGradient id="paint75_linear_111_3" x1="937.862" y1="1027" x2="957.938" y2="1092.57" gradientUnits="userSpaceOnUse">
<stop stop-color="#F8BA62"/>
<stop offset="1" stop-color="#C97908"/>
</linearGradient>
<linearGradient id="paint76_linear_111_3" x1="957.176" y1="796.485" x2="957.176" y2="909.265" gradientUnits="userSpaceOnUse">
<stop stop-color="#F8BA62"/>
<stop offset="1" stop-color="#C97908"/>
</linearGradient>
<linearGradient id="paint77_linear_111_3" x1="1020.95" y1="995.683" x2="1052.47" y2="901.146" gradientUnits="userSpaceOnUse">
<stop stop-color="#F8BA62"/>
<stop offset="1" stop-color="#C97908"/>
</linearGradient>
<linearGradient id="paint78_linear_111_3" x1="1636.86" y1="907.544" x2="2438.87" y2="576.298" gradientUnits="userSpaceOnUse">
<stop stop-color="#F8BA62"/>
<stop offset="1" stop-color="#F5930A"/>
</linearGradient>
<linearGradient id="paint79_linear_111_3" x1="1681.26" y1="1015.05" x2="2483.25" y2="683.815" gradientUnits="userSpaceOnUse">
<stop stop-color="#F8BA62"/>
<stop offset="1" stop-color="#F5930A"/>
</linearGradient>
<linearGradient id="paint80_linear_111_3" x1="1613.7" y1="851.463" x2="2415.69" y2="520.227" gradientUnits="userSpaceOnUse">
<stop stop-color="#F8BA62"/>
<stop offset="1" stop-color="#F5930A"/>
</linearGradient>
<linearGradient id="paint81_linear_111_3" x1="1671.58" y1="991.6" x2="2473.55" y2="660.37" gradientUnits="userSpaceOnUse">
<stop stop-color="#F8BA62"/>
<stop offset="1" stop-color="#F5930A"/>
</linearGradient>
<linearGradient id="paint82_linear_111_3" x1="1646.69" y1="931.33" x2="2448.66" y2="600.103" gradientUnits="userSpaceOnUse">
<stop stop-color="#F8BA62"/>
<stop offset="1" stop-color="#F5930A"/>
</linearGradient>
<linearGradient id="paint83_linear_111_3" x1="1645.58" y1="928.665" x2="2447.6" y2="597.414" gradientUnits="userSpaceOnUse">
<stop stop-color="#F8BA62"/>
<stop offset="1" stop-color="#F5930A"/>
</linearGradient>
<clipPath id="clip0_111_3">
<rect width="3710" height="3710" fill="white"/>
</clipPath>
</defs>
</svg>
